<svg width="875" height="564" viewBox="0 0 875 564" fill="none" xmlns="http://www.w3.org/2000/svg">
<path d="M68.4421 158.217H77.6507C87.274 158.217 94.6575 156.226 99.801 152.244C104.945 148.262 107.516 142.537 107.516 135.071C107.516 127.605 104.945 121.88 99.801 117.898C94.6575 113.916 87.274 111.925 77.6507 111.925H68.4421V158.217ZM175.71 262H114.983L68.4421 189.825V262H19.6615V74.3442H95.57C106.023 74.3442 115.149 75.9205 122.947 79.073C130.745 82.0595 137.133 86.2075 142.111 91.517C147.254 96.8264 151.07 102.965 153.559 109.934C156.214 116.903 157.541 124.369 157.541 132.333C157.541 146.602 154.057 158.217 147.088 167.177C140.286 175.97 130.164 181.943 116.725 185.096L175.71 262ZM194.621 197.54C194.621 201.854 195.367 205.836 196.86 209.486C198.52 212.971 200.594 216.04 203.082 218.695C205.737 221.35 208.807 223.424 212.291 224.917C215.941 226.41 219.757 227.157 223.74 227.157C227.722 227.157 231.455 226.41 234.939 224.917C238.589 223.424 241.659 221.35 244.148 218.695C246.802 216.04 248.876 212.971 250.37 209.486C252.029 205.836 252.859 201.937 252.859 197.789C252.859 193.807 252.029 190.074 250.37 186.589C248.876 182.939 246.802 179.787 244.148 177.132C241.659 174.477 238.589 172.403 234.939 170.91C231.455 169.417 227.722 168.67 223.74 168.67C219.757 168.67 215.941 169.417 212.291 170.91C208.807 172.403 205.737 174.477 203.082 177.132C200.594 179.787 198.52 182.856 196.86 186.34C195.367 189.825 194.621 193.558 194.621 197.54ZM147.084 197.042C147.084 187.585 148.992 178.791 152.809 170.661C156.625 162.365 161.934 155.23 168.737 149.257C175.54 143.118 183.587 138.306 192.878 134.822C202.336 131.338 212.623 129.596 223.74 129.596C234.69 129.596 244.811 131.338 254.103 134.822C263.56 138.141 271.69 142.869 278.493 149.008C285.462 154.981 290.854 162.199 294.67 170.661C298.487 178.957 300.395 188.166 300.395 198.287C300.395 208.408 298.404 217.699 294.422 226.161C290.605 234.457 285.296 241.675 278.493 247.814C271.69 253.787 263.477 258.433 253.854 261.751C244.397 265.07 234.11 266.729 222.993 266.729C212.042 266.729 201.921 265.07 192.629 261.751C183.338 258.433 175.291 253.704 168.488 247.565C161.851 241.426 156.625 234.125 152.809 225.663C148.992 217.036 147.084 207.495 147.084 197.042ZM395.267 175.639C387.468 170.329 379.587 167.674 371.623 167.674C367.309 167.674 363.244 168.421 359.428 169.914C355.778 171.408 352.542 173.565 349.722 176.385C346.901 179.04 344.661 182.275 343.002 186.091C341.509 189.742 340.762 193.89 340.762 198.536C340.762 203.015 341.509 207.163 343.002 210.98C344.661 214.63 346.818 217.865 349.473 220.686C352.293 223.341 355.612 225.415 359.428 226.908C363.244 228.401 367.309 229.148 371.623 229.148C380.085 229.148 387.966 226.244 395.267 220.437V258.765C384.15 263.576 373.614 265.982 363.659 265.982C354.367 265.982 345.491 264.406 337.029 261.253C328.733 258.101 321.349 253.621 314.878 247.814C308.573 241.841 303.513 234.789 299.697 226.659C295.88 218.363 293.972 209.154 293.972 199.033C293.972 188.912 295.798 179.704 299.448 171.408C303.098 162.946 308.076 155.728 314.381 149.755C320.686 143.616 328.152 138.887 336.78 135.569C345.574 132.084 354.948 130.342 364.903 130.342C375.854 130.342 385.975 132.665 395.267 137.311V175.639ZM444.949 55.4293V180.367L492.237 134.324H553.959L489.997 193.309L557.692 262H494.477L444.949 209.984V262H399.902V55.4293H444.949ZM631.857 179.621C630.363 173.316 627.294 168.255 622.648 164.439C618.002 160.623 612.361 158.715 605.724 158.715C598.756 158.715 593.031 160.54 588.551 164.19C584.237 167.84 581.5 172.984 580.338 179.621H631.857ZM579.094 205.753C579.094 225.166 588.22 234.872 606.471 234.872C616.26 234.872 623.644 230.89 628.621 222.926H672.175C663.381 252.128 641.397 266.729 606.222 266.729C595.437 266.729 585.565 265.152 576.605 262C567.645 258.682 559.93 254.036 553.459 248.063C547.154 242.09 542.26 234.955 538.775 226.659C535.291 218.363 533.549 209.071 533.549 198.784C533.549 188.165 535.208 178.625 538.526 170.163C541.845 161.535 546.574 154.235 552.713 148.262C558.852 142.289 566.235 137.726 574.863 134.573C583.657 131.255 593.529 129.596 604.48 129.596C615.265 129.596 624.971 131.255 633.599 134.573C642.227 137.726 649.527 142.372 655.5 148.511C661.473 154.65 666.036 162.199 669.189 171.159C672.341 179.952 673.917 189.908 673.917 201.024V205.753H579.094ZM724.265 171.905V262H679.218V171.905H664.285V134.324H679.218V95.9968H724.265V134.324H749.9V171.905H724.265Z" fill="black"/>
<path d="M68.4421 430.488H79.1439C91.422 430.488 100.216 428.912 105.525 425.76C110.835 422.607 113.489 417.547 113.489 410.578C113.489 403.609 110.835 398.549 105.525 395.396C100.216 392.244 91.422 390.667 79.1439 390.667H68.4421V430.488ZM68.4421 354.331H77.4018C92.6664 354.331 100.299 348.275 100.299 336.163C100.299 324.05 92.6664 317.994 77.4018 317.994H68.4421V354.331ZM19.6615 280.662H92.3346C109.59 280.662 122.698 284.81 131.658 293.106C140.617 301.402 145.097 313.349 145.097 328.945C145.097 338.403 143.355 346.284 139.871 352.589C136.552 358.728 131.409 363.954 124.44 368.268C131.409 369.596 137.299 371.67 142.111 374.49C147.088 377.145 151.07 380.463 154.057 384.445C157.209 388.428 159.449 392.907 160.777 397.885C162.104 402.863 162.768 408.172 162.768 413.813C162.768 422.607 161.192 430.405 158.039 437.208C155.052 444.011 150.739 449.735 145.097 454.381C139.622 459.027 132.902 462.511 124.938 464.834C116.974 467.157 108.014 468.318 98.0589 468.318H19.6615V280.662ZM202.186 404.107C202.186 408.255 202.933 412.154 204.426 415.804C205.919 419.289 207.91 422.358 210.399 425.013C213.054 427.668 216.123 429.742 219.608 431.235C223.258 432.728 227.157 433.475 231.305 433.475C235.287 433.475 239.02 432.728 242.505 431.235C246.155 429.742 249.224 427.668 251.713 425.013C254.368 422.358 256.442 419.289 257.935 415.804C259.595 412.32 260.424 408.587 260.424 404.605C260.424 400.623 259.595 396.889 257.935 393.405C256.442 389.755 254.368 386.602 251.713 383.948C249.224 381.293 246.155 379.219 242.505 377.726C239.02 376.232 235.287 375.486 231.305 375.486C227.157 375.486 223.258 376.232 219.608 377.726C216.123 379.219 213.054 381.293 210.399 383.948C207.91 386.602 205.919 389.672 204.426 393.156C202.933 396.475 202.186 400.125 202.186 404.107ZM258.931 340.643H304.227V468.318H258.931V454.132C249.307 466.244 236.283 472.3 219.857 472.3C210.565 472.3 202.02 470.641 194.222 467.323C186.424 463.838 179.621 459.027 173.814 452.888C168.007 446.748 163.444 439.531 160.125 431.235C156.973 422.939 155.397 413.896 155.397 404.107C155.397 394.981 156.973 386.354 160.125 378.223C163.278 369.927 167.675 362.71 173.316 356.571C178.957 350.432 185.677 345.62 193.475 342.136C201.274 338.486 209.901 336.66 219.359 336.66C235.287 336.66 248.478 342.219 258.931 353.335V340.643ZM307.505 340.643H352.553V356.82C358.692 349.353 364.914 344.376 371.219 341.887C377.524 339.232 384.907 337.905 393.369 337.905C402.329 337.905 409.961 339.398 416.266 342.385C422.737 345.205 428.212 349.27 432.692 354.58C436.342 358.894 438.831 363.705 440.158 369.015C441.486 374.324 442.15 380.38 442.15 387.183V468.318H397.102V403.858C397.102 397.553 396.604 392.493 395.609 388.676C394.779 384.694 393.203 381.542 390.88 379.219C388.889 377.228 386.649 375.818 384.16 374.988C381.672 374.158 379.017 373.744 376.196 373.744C368.564 373.744 362.674 376.066 358.526 380.712C354.544 385.192 352.553 391.663 352.553 400.125V468.318H307.505V340.643ZM490.448 261.747V386.685L537.735 340.643H599.457L535.495 399.627L603.191 468.318H539.975L490.448 416.302V468.318H445.401V261.747H490.448Z" fill="black"/>
<path d="M853.793 270.651C853.681 270.105 853.415 269.603 853.027 269.203C852.638 268.803 852.144 268.522 851.602 268.392C815.454 259.554 731.93 291.049 686.677 336.283C678.606 344.289 671.248 352.983 664.687 362.266C650.732 361.032 636.778 362.063 624.885 367.247C591.328 382.016 581.558 420.554 578.836 437.131C578.682 438.039 578.74 438.969 579.006 439.851C579.273 440.732 579.74 441.539 580.371 442.209C581.002 442.879 581.78 443.393 582.643 443.712C583.507 444.03 584.433 444.144 585.348 444.044L639.234 438.1C639.273 442.163 639.518 446.221 639.969 450.259C640.24 453.063 641.485 455.683 643.487 457.665L664.354 478.483C666.337 480.482 668.957 481.727 671.76 482.001C675.775 482.45 679.811 482.695 683.851 482.735L677.938 536.554C677.839 537.469 677.954 538.394 678.273 539.257C678.592 540.12 679.106 540.897 679.776 541.528C680.445 542.159 681.252 542.626 682.133 542.893C683.013 543.159 683.943 543.218 684.851 543.065C701.397 540.411 740.002 530.641 754.685 497.085C759.87 485.192 760.931 471.305 759.734 457.418C769.04 450.857 777.757 443.497 785.785 435.422C831.18 390.256 862.496 308.596 853.793 270.651ZM740.496 381.541C736.351 377.399 733.528 372.12 732.383 366.373C731.238 360.626 731.824 354.668 734.066 349.254C736.307 343.839 740.104 339.211 744.977 335.955C749.849 332.699 755.577 330.961 761.437 330.961C767.297 330.961 773.026 332.699 777.898 335.955C782.77 339.211 786.567 343.839 788.809 349.254C791.051 354.668 791.636 360.626 790.492 366.373C789.347 372.12 786.524 377.399 782.378 381.541C779.63 384.294 776.366 386.477 772.772 387.967C769.179 389.457 765.327 390.224 761.437 390.224C757.547 390.224 753.696 389.457 750.102 387.967C746.509 386.477 743.245 384.294 740.496 381.541Z" fill="black"/>
<path d="M662.934 493.561C659.552 496.949 654.127 498.27 647.597 499.399C632.927 501.899 619.972 489.222 622.607 474.391C623.613 468.768 626.588 460.887 628.44 459.035C628.844 458.638 629.114 458.124 629.21 457.565C629.305 457.007 629.223 456.432 628.973 455.923C628.724 455.414 628.321 454.997 627.82 454.73C627.32 454.463 626.749 454.361 626.187 454.437C617.983 455.441 610.351 459.161 604.505 465.004C589.995 479.526 588.625 533.413 588.625 533.413C588.625 533.413 642.542 532.042 657.053 517.52C662.914 511.679 666.638 504.035 667.625 495.82C667.853 493.24 664.712 491.703 662.934 493.561V493.561Z" fill="black"/>
</svg>
