<svg width="1024" height="1024" viewBox="0 0 1024 1024" fill="none" xmlns="http://www.w3.org/2000/svg">
<path d="M0 140C0 62.6801 62.6801 0 140 0H884C961.32 0 1024 62.6801 1024 140V884C1024 961.32 961.32 1024 884 1024H140C62.6801 1024 0 961.32 0 884V140Z" fill="black"/>
<path d="M169.442 401.179H178.651C188.274 401.179 195.657 399.188 200.801 395.206C205.945 391.224 208.516 385.5 208.516 378.033C208.516 370.567 205.945 364.843 200.801 360.861C195.657 356.879 188.274 354.888 178.651 354.888H169.442V401.179ZM276.71 504.962H215.983L169.442 432.787V504.962H120.662V317.307H196.57C207.023 317.307 216.149 318.883 223.947 322.035C231.745 325.022 238.133 329.17 243.111 334.479C248.254 339.789 252.07 345.928 254.559 352.897C257.214 359.865 258.541 367.332 258.541 375.296C258.541 389.565 255.057 401.179 248.088 410.139C241.286 418.933 231.164 424.906 217.725 428.058L276.71 504.962ZM295.621 440.502C295.621 444.816 296.367 448.798 297.86 452.449C299.52 455.933 301.594 459.002 304.082 461.657C306.737 464.312 309.807 466.386 313.291 467.879C316.941 469.373 320.757 470.119 324.74 470.119C328.722 470.119 332.455 469.373 335.939 467.879C339.589 466.386 342.659 464.312 345.148 461.657C347.802 459.002 349.876 455.933 351.37 452.449C353.029 448.798 353.859 444.899 353.859 440.751C353.859 436.769 353.029 433.036 351.37 429.552C349.876 425.901 347.802 422.749 345.148 420.094C342.659 417.439 339.589 415.365 335.939 413.872C332.455 412.379 328.722 411.632 324.74 411.632C320.757 411.632 316.941 412.379 313.291 413.872C309.807 415.365 306.737 417.439 304.082 420.094C301.594 422.749 299.52 425.818 297.86 429.303C296.367 432.787 295.621 436.52 295.621 440.502ZM248.084 440.005C248.084 430.547 249.992 421.753 253.809 413.623C257.625 405.327 262.934 398.193 269.737 392.22C276.54 386.081 284.587 381.269 293.878 377.785C303.336 374.3 313.623 372.558 324.74 372.558C335.69 372.558 345.811 374.3 355.103 377.785C364.56 381.103 372.69 385.832 379.493 391.971C386.462 397.944 391.854 405.161 395.67 413.623C399.487 421.919 401.395 431.128 401.395 441.249C401.395 451.37 399.404 460.662 395.422 469.124C391.605 477.42 386.296 484.637 379.493 490.776C372.69 496.749 364.477 501.395 354.854 504.714C345.397 508.032 335.11 509.691 323.993 509.691C313.042 509.691 302.921 508.032 293.629 504.714C284.338 501.395 276.291 496.666 269.488 490.527C262.851 484.388 257.625 477.088 253.809 468.626C249.992 459.998 248.084 450.458 248.084 440.005ZM496.267 418.601C488.468 413.291 480.587 410.637 472.623 410.637C468.309 410.637 464.244 411.383 460.428 412.877C456.778 414.37 453.542 416.527 450.722 419.348C447.901 422.002 445.661 425.238 444.002 429.054C442.509 432.704 441.762 436.852 441.762 441.498C441.762 445.978 442.509 450.126 444.002 453.942C445.661 457.592 447.818 460.828 450.473 463.648C453.293 466.303 456.612 468.377 460.428 469.87C464.244 471.364 468.309 472.11 472.623 472.11C481.085 472.11 488.966 469.207 496.267 463.399V501.727C485.15 506.539 474.614 508.944 464.659 508.944C455.367 508.944 446.491 507.368 438.029 504.216C429.733 501.063 422.349 496.583 415.878 490.776C409.573 484.803 404.513 477.751 400.697 469.621C396.88 461.325 394.972 452.117 394.972 441.996C394.972 431.875 396.798 422.666 400.448 414.37C404.098 405.908 409.076 398.69 415.381 392.717C421.686 386.578 429.152 381.85 437.78 378.531C446.574 375.047 455.948 373.305 465.903 373.305C476.854 373.305 486.975 375.628 496.267 380.273V418.601ZM545.949 298.392V423.33L593.237 377.287H654.959L590.997 436.271L658.692 504.962H595.477L545.949 452.946V504.962H500.902V298.392H545.949ZM732.857 422.583C731.363 416.278 728.294 411.217 723.648 407.401C719.002 403.585 713.361 401.677 706.724 401.677C699.756 401.677 694.031 403.502 689.551 407.152C685.237 410.803 682.5 415.946 681.338 422.583H732.857ZM680.094 448.715C680.094 468.128 689.22 477.834 707.471 477.834C717.26 477.834 724.644 473.852 729.621 465.888H773.175C764.381 495.09 742.397 509.691 707.222 509.691C696.437 509.691 686.565 508.115 677.605 504.962C668.645 501.644 660.93 496.998 654.459 491.025C648.154 485.052 643.26 477.917 639.775 469.621C636.291 461.325 634.549 452.034 634.549 441.747C634.549 431.128 636.208 421.587 639.526 413.126C642.845 404.498 647.574 397.197 653.713 391.224C659.852 385.251 667.235 380.688 675.863 377.536C684.657 374.217 694.529 372.558 705.48 372.558C716.265 372.558 725.971 374.217 734.599 377.536C743.227 380.688 750.527 385.334 756.5 391.473C762.473 397.612 767.036 405.161 770.189 414.121C773.341 422.915 774.917 432.87 774.917 443.987V448.715H680.094ZM825.265 414.868V504.962H780.218V414.868H765.285V377.287H780.218V338.959H825.265V377.287H850.9V414.868H825.265Z" fill="white"/>
<path d="M169.442 673.45H180.144C192.422 673.45 201.216 671.874 206.525 668.722C211.835 665.569 214.489 660.509 214.489 653.54C214.489 646.571 211.835 641.511 206.525 638.358C201.216 635.206 192.422 633.63 180.144 633.63H169.442V673.45ZM169.442 597.293H178.402C193.666 597.293 201.299 591.237 201.299 579.125C201.299 567.013 193.666 560.957 178.402 560.957H169.442V597.293ZM120.662 523.625H193.335C210.59 523.625 223.698 527.773 232.658 536.069C241.617 544.365 246.097 556.311 246.097 571.907C246.097 581.365 244.355 589.246 240.871 595.551C237.552 601.69 232.409 606.916 225.44 611.23C232.409 612.558 238.299 614.632 243.111 617.452C248.088 620.107 252.07 623.426 255.057 627.408C258.209 631.39 260.449 635.87 261.777 640.847C263.104 645.825 263.768 651.134 263.768 656.775C263.768 665.569 262.192 673.368 259.039 680.17C256.052 686.973 251.739 692.697 246.097 697.343C240.622 701.989 233.902 705.473 225.938 707.796C217.974 710.119 209.014 711.28 199.059 711.28H120.662V523.625ZM303.186 647.069C303.186 651.217 303.933 655.116 305.426 658.767C306.919 662.251 308.91 665.32 311.399 667.975C314.054 670.63 317.123 672.704 320.608 674.197C324.258 675.69 328.157 676.437 332.305 676.437C336.287 676.437 340.02 675.69 343.505 674.197C347.155 672.704 350.224 670.63 352.713 667.975C355.368 665.32 357.442 662.251 358.935 658.767C360.595 655.282 361.424 651.549 361.424 647.567C361.424 643.585 360.595 639.852 358.935 636.367C357.442 632.717 355.368 629.565 352.713 626.91C350.224 624.255 347.155 622.181 343.505 620.688C340.02 619.195 336.287 618.448 332.305 618.448C328.157 618.448 324.258 619.195 320.608 620.688C317.123 622.181 314.054 624.255 311.399 626.91C308.91 629.565 306.919 632.634 305.426 636.118C303.933 639.437 303.186 643.087 303.186 647.069ZM359.931 583.605H405.227V711.28H359.931V697.094C350.307 709.206 337.283 715.262 320.857 715.262C311.565 715.262 303.02 713.603 295.222 710.285C287.424 706.8 280.621 701.989 274.814 695.85C269.007 689.711 264.444 682.493 261.125 674.197C257.973 665.901 256.397 656.858 256.397 647.069C256.397 637.944 257.973 629.316 261.125 621.186C264.278 612.89 268.675 605.672 274.316 599.533C279.957 593.394 286.677 588.582 294.475 585.098C302.274 581.448 310.901 579.623 320.359 579.623C336.287 579.623 349.478 585.181 359.931 596.298V583.605ZM408.505 583.605H453.553V599.782C459.692 592.315 465.914 587.338 472.219 584.849C478.524 582.194 485.907 580.867 494.369 580.867C503.329 580.867 510.961 582.36 517.266 585.347C523.737 588.167 529.212 592.233 533.692 597.542C537.342 601.856 539.831 606.668 541.158 611.977C542.486 617.286 543.15 623.343 543.15 630.145V711.28H498.102V646.82C498.102 640.515 497.604 635.455 496.609 631.639C495.779 627.656 494.203 624.504 491.88 622.181C489.889 620.19 487.649 618.78 485.16 617.95C482.672 617.121 480.017 616.706 477.196 616.706C469.564 616.706 463.674 619.029 459.526 623.674C455.544 628.154 453.553 634.625 453.553 643.087V711.28H408.505V583.605ZM591.448 504.71V629.648L638.735 583.605H700.457L636.495 642.589L704.191 711.28H640.975L591.448 659.264V711.28H546.401V504.71H591.448Z" fill="white"/>
<path d="M954.793 513.614C954.681 513.068 954.415 512.565 954.027 512.165C953.638 511.765 953.144 511.484 952.602 511.355C916.454 502.517 832.93 534.012 787.677 579.245C779.606 587.251 772.248 595.945 765.687 605.229C751.732 603.995 737.778 605.025 725.885 610.21C692.328 624.979 682.558 663.516 679.836 680.094C679.682 681.001 679.74 681.932 680.006 682.813C680.273 683.694 680.74 684.501 681.371 685.171C682.002 685.841 682.78 686.356 683.643 686.674C684.507 686.993 685.433 687.106 686.348 687.006L740.234 681.063C740.273 685.126 740.518 689.184 740.969 693.221C741.24 696.025 742.485 698.646 744.487 700.628L765.354 721.445C767.337 723.445 769.957 724.689 772.76 724.963C776.775 725.413 780.811 725.658 784.851 725.698L778.938 779.517C778.839 780.431 778.954 781.356 779.273 782.219C779.592 783.082 780.106 783.86 780.776 784.49C781.445 785.121 782.252 785.588 783.133 785.855C784.013 786.122 784.943 786.181 785.851 786.028C802.397 783.374 841.002 773.604 855.685 740.047C860.87 728.154 861.931 714.268 860.734 700.381C870.04 693.819 878.757 686.459 886.785 678.384C932.18 633.218 963.496 551.558 954.793 513.614ZM841.496 624.504C837.351 620.361 834.528 615.083 833.383 609.336C832.238 603.588 832.824 597.631 835.066 592.216C837.307 586.802 841.104 582.174 845.977 578.918C850.849 575.662 856.577 573.924 862.437 573.924C868.297 573.924 874.026 575.662 878.898 578.918C883.77 582.174 887.567 586.802 889.809 592.216C892.051 597.631 892.636 603.588 891.492 609.336C890.347 615.083 887.524 620.361 883.378 624.504C880.63 627.256 877.366 629.44 873.772 630.93C870.179 632.42 866.327 633.187 862.437 633.187C858.547 633.187 854.696 632.42 851.102 630.93C847.509 629.44 844.245 627.256 841.496 624.504Z" fill="white"/>
<path d="M763.934 736.523C760.552 739.912 755.127 741.232 748.597 742.362C733.927 744.861 720.972 732.184 723.607 717.353C724.613 711.731 727.588 703.849 729.44 701.998C729.844 701.601 730.114 701.087 730.21 700.528C730.305 699.969 730.223 699.394 729.973 698.885C729.724 698.376 729.321 697.959 728.82 697.692C728.32 697.425 727.749 697.323 727.187 697.4C718.983 698.404 711.351 702.123 705.505 707.966C690.995 722.488 689.625 776.375 689.625 776.375C689.625 776.375 743.542 775.005 758.053 760.482C763.914 754.642 767.638 746.998 768.625 738.782C768.853 736.202 765.712 734.665 763.934 736.523Z" fill="white"/>
</svg>
